PathFileType	4	(X/Y/Z)	/home/lloyd/projects/artisynth/mainroot/artisynth_core/src/artisynth/demos/tutorial/data/offMarkers.trc
DataRate	CameraRate	NumFrames	NumMarkers	Units	OrigDataRate	OrigDataStartFrame	OrigNumFrames
50	50	48	7	mm	50	101	201
Frame#	Time	mkr8			mkr4			mkr6			mkr5			mkr7			mkr0			mkr2		
		X1	Y1	Z1	X2	Y2	Z2	X3	Y3	Z3	X4	Y4	Z4	X5	Y5	Z5	X6	Y6	Z6	X7	Y7	Z7

101	 2.0000000	 0.4801858	 0.0045048	 1.0749938	 0.3624863	-0.0182569	 1.0325775	 0.4623421	-0.0220182	 0.9837819	-0.0707430	 0.0181577	 0.5464050	 0.1115620	 0.0236301	 0.5320520	-0.1294250	 0.0151680	 0.3500916	 0.1076400	-0.0060904	 0.3632107
102	 2.0200000	 0.4803019	 0.0045048	 1.0754399	 0.3626418	-0.0182569	 1.0329142	 0.4625429	-0.0220182	 0.9842114	-0.0702349	 0.0181577	 0.5464705	 0.1120567	 0.0236301	 0.5319480	-0.1290994	 0.0151680	 0.3502118	 0.1079777	-0.0060904	 0.3631104
103	 2.0400000	 0.4806413	 0.0045048	 1.0767486	 0.3630982	-0.0182569	 1.0339007	 0.4631323	-0.0220182	 0.9854718	-0.0687376	 0.0181577	 0.5466609	 0.1135135	 0.0236301	 0.5316391	-0.1281395	 0.0151680	 0.3505642	 0.1089720	-0.0060904	 0.3628133
104	 2.0600000	 0.4811878	 0.0045048	 1.0788683	 0.3638376	-0.0182569	 1.0354950	 0.4640874	-0.0220182	 0.9875141	-0.0662913	 0.0181577	 0.5469629	 0.1158908	 0.0236301	 0.5311259	-0.1265699	 0.0151680	 0.3511339	 0.1105940	-0.0060904	 0.3623222
105	 2.0800000	 0.4819213	 0.0045048	 1.0817389	 0.3648393	-0.0182569	 1.0376468	 0.4653814	-0.0220182	 0.9902816	-0.0629359	 0.0181577	 0.5473592	 0.1191456	 0.0236301	 0.5304053	-0.1244143	 0.0151680	 0.3519035	 0.1128138	-0.0060904	 0.3616371
106	 2.1000000	 0.4828185	 0.0045048	 1.0852929	 0.3660801	-0.0182569	 1.0402987	 0.4669848	-0.0220182	 0.9937107	-0.0587108	 0.0181577	 0.5478285	 0.1232345	 0.0236301	 0.5294702	-0.1216954	 0.0151680	 0.3528529	 0.1156007	-0.0060904	 0.3607559
107	 2.1200000	 0.4838533	 0.0045048	 1.0894566	 0.3675349	-0.0182569	 1.0433876	 0.4688649	-0.0220182	 0.9977323	-0.0536553	 0.0181577	 0.5483467	 0.1281129	 0.0236301	 0.5283110	-0.1184357	 0.0151680	 0.3539604	 0.1189233	-0.0060904	 0.3596743
108	 2.1400000	 0.4849976	 0.0045048	 1.0941517	 0.3691767	-0.0182569	 1.0468458	 0.4709875	-0.0220182	 1.0022728	-0.0478091	 0.0181577	 0.5488873	 0.1337353	 0.0236301	 0.5269158	-0.1146571	 0.0151680	 0.3552023	 0.1227493	-0.0060904	 0.3583867
109	 2.1600000	 0.4862215	 0.0045048	 1.0992957	 0.3709773	-0.0182569	 1.0506018	 0.4733162	-0.0220182	 1.0072551	-0.0412118	 0.0181577	 0.5494220	 0.1400556	 0.0236301	 0.5252712	-0.1103817	 0.0151680	 0.3565541	 0.1270458	-0.0060904	 0.3568862
110	 2.1800000	 0.4874942	 0.0045048	 1.1048035	 0.3729076	-0.0182569	 1.0545818	 0.4758137	-0.0220182	 1.0125995	-0.0339036	 0.0181577	 0.5499214	 0.1470266	 0.0236301	 0.5233628	-0.1056317	 0.0151680	 0.3579901	 0.1317793	-0.0060904	 0.3551656
111	 2.2000000	 0.4887842	 0.0045048	 1.1105884	 0.3749378	-0.0182569	 1.0587103	 0.4784419	-0.0220182	 1.0182247	-0.0259256	 0.0181577	 0.5503552	 0.1546005	 0.0236301	 0.5211757	-0.1004293	 0.0151680	 0.3594842	 0.1369157	-0.0060904	 0.3532173
112	 2.2200000	 0.4900596	 0.0045048	 1.1165628	 0.3770381	-0.0182569	 1.0629115	 0.4811624	-0.0220182	 1.0240487	-0.0173193	 0.0181577	 0.5506932	 0.1627286	 0.0236301	 0.5186953	-0.0947976	 0.0151680	 0.3610102	 0.1424204	-0.0060904	 0.3510339
113	 2.2400000	 0.4912889	 0.0045048	 1.1226395	 0.3791785	-0.0182569	 1.0671096	 0.4839369	-0.0220182	 1.0299899	-0.0081273	 0.0181577	 0.5509056	 0.1713616	 0.0236301	 0.5159076	-0.0887601	 0.0151680	 0.3625419	 0.1482584	-0.0060904	 0.3486084
114	 2.2600000	 0.4924414	 0.0045048	 1.1287324	 0.3813295	-0.0182569	 1.0712304	 0.4867273	-0.0220182	 1.0359673	 0.0016070	 0.0181577	 0.5509632	 0.1804496	 0.0236301	 0.5127995	-0.0823411	 0.0151680	 0.3640534	 0.1543943	-0.0060904	 0.3459346
115	 2.2800000	 0.4934871	 0.0045048	 1.1347573	 0.3834624	-0.0182569	 1.0752017	 0.4894969	-0.0220182	 1.0419021	 0.0118393	 0.0181577	 0.5508383	 0.1899422	 0.0236301	 0.5093598	-0.0755657	 0.0151680	 0.3655199	 0.1607924	-0.0060904	 0.3430076
116	 2.3000000	 0.4943978	 0.0045048	 1.1406333	 0.3855491	-0.0182569	 1.0789543	 0.4922098	-0.0220182	 1.0477181	 0.0225240	 0.0181577	 0.5505049	 0.1997887	 0.0236301	 0.5055788	-0.0684599	 0.0151680	 0.3669172	 0.1674169	-0.0060904	 0.3398234
117	 2.3200000	 0.4951467	 0.0045048	 1.1462828	 0.3875633	-0.0182569	 1.0824224	 0.4948319	-0.0220182	 1.0533424	 0.0336149	 0.0181577	 0.5499391	 0.2099381	 0.0236301	 0.5014493	-0.0610507	 0.0151680	 0.3682224	 0.1742321	-0.0060904	 0.3363801
118	 2.3400000	 0.4957094	 0.0045048	 1.1516330	 0.3894798	-0.0182569	 1.0855452	 0.4973309	-0.0220182	 1.0587062	 0.0450648	 0.0181577	 0.5491194	 0.2203395	 0.0236301	 0.4969667	-0.0533661	 0.0151680	 0.3694144	 0.1812022	-0.0060904	 0.3326772
119	 2.3600000	 0.4960637	 0.0045048	 1.1566162	 0.3912753	-0.0182569	 1.0882664	 0.4996769	-0.0220182	 1.0637456	 0.0568257	 0.0181577	 0.5480272	 0.2309421	 0.0236301	 0.4921292	-0.0454349	 0.0151680	 0.3704735	 0.1882921	-0.0060904	 0.3287164
120	 2.3800000	 0.4961903	 0.0045048	 1.1611708	 0.3929284	-0.0182569	 1.0905358	 0.5018425	-0.0220182	 1.0684019	 0.0688490	 0.0181577	 0.5466469	 0.2416956	 0.0236301	 0.4869380	-0.0372867	 0.0151680	 0.3713821	 0.1954666	-0.0060904	 0.3245014
121	 2.4000000	 0.4960727	 0.0045048	 1.1652415	 0.3944201	-0.0182569	 1.0923095	 0.5038030	-0.0220182	 1.0726226	 0.0810856	 0.0181577	 0.5449662	 0.2525504	 0.0236301	 0.4813977	-0.0289523	 0.0151680	 0.3721246	 0.2026917	-0.0060904	 0.3200382
122	 2.4200000	 0.4956975	 0.0045048	 1.1687801	 0.3957337	-0.0182569	 1.0935501	 0.5055368	-0.0220182	 1.0763615	 0.0934862	 0.0181577	 0.5429764	 0.2634574	 0.0236301	 0.4755161	-0.0204627	 0.0151680	 0.3726879	 0.2099338	-0.0060904	 0.3153350
123	 2.4400000	 0.4950546	 0.0045048	 1.1717462	 0.3968548	-0.0182569	 1.0942275	 0.5070257	-0.0220182	 1.0795794	 0.1060012	 0.0181577	 0.5406725	 0.2743692	 0.0236301	 0.4693048	-0.0118501	 0.0151680	 0.3730610	 0.2171605	-0.0060904	 0.3104025
124	 2.4600000	 0.4941374	 0.0045048	 1.1741070	 0.3977722	-0.0182569	 1.0943193	 0.5082547	-0.0220182	 1.0822445	 0.1185815	 0.0181577	 0.5380534	 0.2852393	 0.0236301	 0.4627785	-0.0031467	 0.0151680	 0.3732359	 0.2243403	-0.0060904	 0.3052537
125	 2.4800000	 0.4929429	 0.0045048	 1.1758382	 0.3984770	-0.0182569	 1.0938106	 0.5092125	-0.0220182	 1.0843324	 0.1311779	 0.0181577	 0.5351218	 0.2960229	 0.0236301	 0.4559560	 0.0056147	 0.0151680	 0.3732070	 0.2314434	-0.0060904	 0.2999039
126	 2.5000000	 0.4914716	 0.0045048	 1.1769239	 0.3989635	-0.0182569	 1.0926947	 0.5098914	-0.0220182	 1.0858266	 0.1437421	 0.0181577	 0.5318846	 0.3066773	 0.0236301	 0.4488590	 0.0144011	 0.0151680	 0.3729713	 0.2384411	-0.0060904	 0.2943709
127	 2.5200000	 0.4897278	 0.0045048	 1.1773571	 0.3992287	-0.0182569	 1.0909729	 0.5102876	-0.0220182	 1.0867187	 0.1562267	 0.0181577	 0.5283524	 0.3171617	 0.0236301	 0.4415132	 0.0231796	 0.0151680	 0.3725287	 0.2453066	-0.0060904	 0.2886746
128	 2.5400000	 0.4877193	 0.0045048	 1.1771390	 0.3992727	-0.0182569	 1.0886544	 0.5104009	-0.0220182	 1.0870082	 0.1685850	 0.0181577	 0.5245399	 0.3274374	 0.0236301	 0.4339472	 0.0319171	 0.0151680	 0.3718820	 0.2520147	-0.0060904	 0.2828373
129	 2.5600000	 0.4854576	 0.0045048	 1.1762800	 0.3990986	-0.0182569	 1.0857568	 0.5102349	-0.0220182	 1.0867027	 0.1807720	 0.0181577	 0.5204656	 0.3374685	 0.0236301	 0.4261930	 0.0405811	 0.0151680	 0.3710366	 0.2585423	-0.0060904	 0.2768831
130	 2.5800000	 0.4829575	 0.0045048	 1.1747987	 0.3987122	-0.0182569	 1.0823053	 0.5097970	-0.0220182	 1.0858175	 0.1927439	 0.0181577	 0.5161519	 0.3472214	 0.0236301	 0.4182855	 0.0491394	 0.0151680	 0.3700004	 0.2648679	-0.0060904	 0.2708383
131	 2.6000000	 0.4802375	 0.0045048	 1.1727223	 0.3981223	-0.0182569	 1.0783327	 0.5090982	-0.0220182	 1.0843760	 0.2044587	 0.0181577	 0.5116245	 0.3566653	 0.0236301	 0.4102624	 0.0575602	 0.0151680	 0.3687842	 0.2709724	-0.0060904	 0.2647307
132	 2.6200000	 0.4773191	 0.0045048	 1.1700860	 0.3973404	-0.0182569	 1.0738793	 0.5081530	-0.0220182	 1.0824088	 0.2158762	 0.0181577	 0.5069127	 0.3657723	 0.0236301	 0.4021641	 0.0658126	 0.0151680	 0.3674012	 0.2768387	-0.0060904	 0.2585899
133	 2.6400000	 0.4742269	 0.0045048	 1.1669324	 0.3963806	-0.0182569	 1.0689923	 0.5069791	-0.0220182	 1.0799537	 0.2269580	 0.0181577	 0.5020488	 0.3745173	 0.0236301	 0.3940332	 0.0738664	 0.0151680	 0.3658671	 0.2824516	-0.0060904	 0.2524469
134	 2.6600000	 0.4709883	 0.0045048	 1.1633117	 0.3952594	-0.0182569	 1.0637253	 0.5055975	-0.0220182	 1.0770551	 0.2376681	 0.0181577	 0.4970683	 0.3828780	 0.0236301	 0.3859143	 0.0816924	 0.0151680	 0.3641996	 0.2877983	-0.0060904	 0.2463341
135	 2.6800000	 0.4676335	 0.0045048	 1.1592806	 0.3939957	-0.0182569	 1.0581381	 0.5040322	-0.0220182	 1.0737637	 0.2479722	 0.0181577	 0.4920089	 0.3908349	 0.0236301	 0.3778538	 0.0892622	 0.0151680	 0.3624186	 0.2928679	-0.0060904	 0.2402848
136	 2.7000000	 0.4641947	 0.0045048	 1.1549019	 0.3926104	-0.0182569	 1.0522957	 0.5023096	-0.0220182	 1.0701359	 0.2578383	 0.0181577	 0.4869111	 0.3983712	 0.0236301	 0.3698998	 0.0965486	 0.0151680	 0.3605459	 0.2976513	-0.0060904	 0.2343332
137	 2.7200000	 0.4607064	 0.0045048	 1.1502437	 0.3911263	-0.0182569	 1.0462680	 0.5004587	-0.0220182	 1.0662332	 0.2672365	 0.0181577	 0.4818170	 0.4054727	 0.0236301	 0.3621012	 0.1035255	 0.0151680	 0.3586048	 0.3021417	-0.0060904	 0.2285143
138	 2.7400000	 0.4572047	 0.0045048	 1.1453790	 0.3895676	-0.0182569	 1.0401290	 0.4985104	-0.0220182	 1.0621212	 0.2761387	 0.0181577	 0.4767708	 0.4121277	 0.0236301	 0.3545083	 0.1101677	 0.0151680	 0.3566203	 0.3063335	-0.0060904	 0.2228635
139	 2.7600000	 0.4537272	 0.0045048	 1.1403845	 0.3879602	-0.0182569	 1.0339560	 0.4964974	-0.0220182	 1.0578695	 0.2845189	 0.0181577	 0.4718177	 0.4183266	 0.0236301	 0.3471718	 0.1164510	 0.0151680	 0.3546183	 0.3102231	-0.0060904	 0.2174166
140	 2.7800000	 0.4503125	 0.0045048	 1.1353402	 0.3863307	-0.0182569	 1.0278290	 0.4944537	-0.0220182	 1.0535504	 0.2923527	 0.0181577	 0.4670042	 0.4240618	 0.0236301	 0.3401427	 0.1223525	 0.0151680	 0.3526256	 0.3138081	-0.0060904	 0.2122095
141	 2.8000000	 0.4470001	 0.0045048	 1.1303281	 0.3847067	-0.0182569	 1.0218299	 0.4924144	-0.0220182	 1.0492383	 0.2996171	 0.0181577	 0.4623771	 0.4293270	 0.0236301	 0.3334722	 0.1278497	 0.0151680	 0.3506699	 0.3170870	-0.0060904	 0.2072782
142	 2.8200000	 0.4438296	 0.0045048	 1.1254316	 0.3831161	-0.0182569	 1.0160415	 0.4904151	-0.0220182	 1.0450089	 0.3062906	 0.0181577	 0.4579837	 0.4341176	 0.0236301	 0.3272114	 0.1329214	 0.0151680	 0.3487791	 0.3200594	-0.0060904	 0.2026583
143	 2.8400000	 0.4408408	 0.0045048	 1.1207345	 0.3815870	-0.0182569	 1.0105469	 0.4884914	-0.0220182	 1.0409383	 0.3123524	 0.0181577	 0.4538711	 0.4384294	 0.0236301	 0.3214110	 0.1375466	 0.0151680	 0.3469811	 0.3227254	-0.0060904	 0.1983852
144	 2.8600000	 0.4380732	 0.0045048	 1.1163198	 0.3801473	-0.0182569	 1.0054283	 0.4866789	-0.0220182	 1.0371018	 0.3177822	 0.0181577	 0.4500860	 0.4422590	 0.0236301	 0.3161209	 0.1417050	 0.0151680	 0.3453037	 0.3250853	-0.0060904	 0.1944940
145	 2.8800000	 0.4355652	 0.0045048	 1.1122690	 0.3788243	-0.0182569	 1.0007665	 0.4850124	-0.0220182	 1.0335734	 0.3225603	 0.0181577	 0.4466742	 0.4456025	 0.0236301	 0.3113902	 0.1453765	 0.0151680	 0.3437741	 0.3271394	-0.0060904	 0.1910188
146	 2.9000000	 0.4333545	 0.0045048	 1.1086607	 0.3776445	-0.0182569	 0.9966397	 0.4835254	-0.0220182	 1.0304246	 0.3266666	 0.0181577	 0.4436800	 0.4484557	 0.0236301	 0.3072669	 0.1485412	 0.0151680	 0.3424186	 0.3288874	-0.0060904	 0.1879933
147	 2.9200000	 0.4314769	 0.0045048	 1.1055699	 0.3766328	-0.0182569	 0.9931224	 0.4822499	-0.0220182	 1.0277232	 0.3300801	 0.0181577	 0.4411463	 0.4508131	 0.0236301	 0.3037976	 0.1511788	 0.0151680	 0.3412623	 0.3303281	-0.0060904	 0.1854501
148	 2.9400000	 0.4299663	 0.0045048	 1.1030665	 0.3758128	-0.0182569	 0.9902847	 0.4812157	-0.0220182	 1.0255326	 0.3327792	 0.0181577	 0.4391139	 0.4526676	 0.0236301	 0.3010273	 0.1532687	 0.0151680	 0.3403288	 0.3314591	-0.0060904	 0.1834209
